<svg xmlns="http://www.w3.org/2000/svg" viewBox="0 0 691.2 691.2">
  <defs><linearGradient id="g" x1="0" y1="0" x2="1" y2="1"><stop offset="0%" stop-color="#9558b2"/><stop offset="34%" stop-color="#4063d8"/><stop offset="67%" stop-color="#389826"/><stop offset="100%" stop-color="#cb3c33"/></linearGradient></defs>
  <path fill="url(#g)" fill-rule="evenodd" d="M343.6,184.1L343.1,184.6L343.1,185.6L343.6,186.1L344.1,186.6L343.6,187.1L342.6,187.1L341.6,187.1L341.1,187.6L340.6,188.1L339.6,188.1L338.6,188.1L338.1,188.6L338.6,189.1L339.1,189.6L339.1,190.6L339.1,191.6L339.1,192.6L339.1,193.6L339.6,194.1L340.1,194.6L340.1,195.6L340.6,196.1L341.6,196.1L342.1,196.6L341.6,197.1L340.6,197.1L339.6,197.1L338.6,197.1L337.6,197.1L336.6,197.1L336.1,197.6L335.6,198.1L334.6,198.1L333.6,198.1L333.1,198.6L333.1,199.6L332.6,200.1L331.6,200.1L331.1,200.6L331.1,201.6L330.6,202.1L329.6,202.1L329.1,201.6L328.6,201.1L328.1,200.6L327.6,200.1L327.1,200.6L326.6,201.1L325.6,201.1L325.1,201.6L325.1,202.6L325.1,203.6L325.1,204.6L325.6,205.1L326.1,205.6L326.6,206.1L327.6,206.1L328.1,206.6L327.6,207.1L326.6,207.1L326.1,207.6L326.1,208.6L326.1,209.6L326.1,210.6L326.1,211.6L325.6,212.1L324.6,212.1L323.6,212.1L323.1,212.6L323.6,213.1L324.6,213.1L325.1,213.6L325.6,214.1L326.1,214.6L326.1,215.6L326.1,216.6L326.1,217.6L325.6,218.1L325.1,218.6L325.6,219.1L326.6,219.1L327.1,219.6L327.1,220.6L327.1,221.6L327.6,222.1L328.1,222.6L328.6,223.1L329.1,223.6L329.1,224.6L329.6,225.1L330.1,225.6L330.6,226.1L331.1,226.6L331.6,227.1L332.1,227.6L332.6,228.1L333.6,228.1L334.1,228.6L334.6,229.1L335.6,229.1L336.6,229.1L337.1,229.6L336.6,230.1L335.6,230.1L334.6,230.1L333.6,230.1L332.6,230.1L331.6,230.1L331.1,229.6L330.6,229.1L329.6,229.1L328.6,229.1L327.6,229.1L326.6,229.1L325.6,229.1L325.1,228.6L324.6,228.1L324.1,228.6L323.6,229.1L322.6,229.1L322.1,228.6L321.6,228.1L321.1,228.6L320.6,229.1L319.6,229.1L318.6,229.1L317.6,229.1L317.1,228.6L316.6,228.1L316.1,227.6L315.6,227.1L315.1,227.6L314.6,228.1L314.1,228.6L314.1,229.6L313.6,230.1L312.6,230.1L311.6,230.1L311.1,230.6L310.6,231.1L309.6,231.1L309.1,231.6L308.6,232.1L308.1,231.6L308.1,230.6L308.1,229.6L307.6,229.1L307.1,228.6L306.6,228.1L305.6,228.1L304.6,228.1L303.6,228.1L303.1,228.6L303.1,229.6L302.6,230.1L302.1,230.6L302.1,231.6L302.6,232.1L303.1,232.6L303.6,233.1L304.1,233.6L303.6,234.1L302.6,234.1L301.6,234.1L300.6,234.1L300.1,234.6L299.6,235.1L298.6,235.1L298.1,234.6L297.6,234.1L296.6,234.1L296.1,234.6L296.1,235.6L296.6,236.1L297.1,236.6L296.6,237.1L295.6,237.1L295.1,237.6L294.6,238.1L294.1,238.6L293.6,239.1L292.6,239.1L292.1,239.6L291.6,240.1L291.1,240.6L291.1,241.6L290.6,242.1L290.1,242.6L289.6,243.1L289.1,242.6L289.1,241.6L289.1,240.6L289.1,239.6L289.1,238.6L288.6,238.1L288.1,237.6L288.1,236.6L287.6,236.1L286.6,236.1L286.1,235.6L285.6,235.1L285.1,234.6L285.1,233.6L284.6,233.1L284.1,233.6L283.6,234.1L282.6,234.1L281.6,234.1L281.1,234.6L280.6,235.1L279.6,235.1L279.1,234.6L279.1,233.6L278.6,233.1L277.6,233.1L277.1,232.6L276.6,232.1L275.6,232.1L275.1,232.6L275.6,233.1L276.1,233.6L275.6,234.1L275.1,234.6L275.1,235.6L275.6,236.1L276.1,236.6L276.1,237.6L275.6,238.1L275.1,238.6L275.1,239.6L275.1,240.6L274.6,241.1L273.6,241.1L273.1,241.6L273.1,242.6L273.6,243.1L274.1,242.6L274.6,242.1L275.1,242.6L275.1,243.6L275.1,244.6L275.1,245.6L275.6,246.1L276.1,246.6L276.6,247.1L277.6,247.1L278.1,247.6L278.6,248.1L279.6,248.1L280.6,248.1L281.6,248.1L282.6,248.1L283.1,248.6L282.6,249.1L281.6,249.1L281.1,249.6L280.6,250.1L279.6,250.1L279.1,250.6L278.6,251.1L277.6,251.1L277.1,251.6L276.6,252.1L276.1,252.6L275.6,253.1L275.1,253.6L274.6,254.1L274.1,254.6L273.6,255.1L272.6,255.1L271.6,255.1L271.1,255.6L271.1,256.6L271.1,257.6L270.6,258.1L270.1,258.6L270.1,259.6L269.6,260.1L269.1,260.6L268.6,261.1L268.1,261.6L268.1,262.6L267.6,263.1L266.6,263.1L266.1,262.6L265.6,262.1L265.1,261.6L264.6,261.1L263.6,261.1L262.6,261.1L262.1,261.6L261.6,262.1L261.1,261.6L260.6,261.1L259.6,261.1L259.1,261.6L259.1,262.6L259.6,263.1L260.1,263.6L259.6,264.1L259.1,264.6L259.6,265.1L260.1,265.6L260.1,266.6L260.1,267.6L260.6,268.1L261.6,268.1L262.6,268.1L263.1,268.6L263.1,269.6L262.6,270.1L262.1,270.6L261.6,271.1L261.1,271.6L261.1,272.6L260.6,273.1L259.6,273.1L259.1,273.6L259.6,274.1L260.1,274.6L259.6,275.1L259.1,275.6L259.1,276.6L259.1,277.6L259.1,278.6L258.6,279.1L258.1,278.6L257.6,278.1L257.1,277.6L256.6,277.1L256.1,277.6L255.6,278.1L254.6,278.1L254.1,278.6L254.1,279.6L254.1,280.6L254.6,281.1L255.6,281.1L256.1,281.6L256.6,282.1L257.1,281.6L257.6,281.1L258.1,281.6L257.6,282.1L257.1,282.6L256.6,283.1L256.1,283.6L256.1,284.6L256.1,285.6L255.6,286.1L255.1,286.6L255.1,287.6L254.6,288.1L253.6,288.1L252.6,288.1L252.1,288.6L252.1,289.6L252.6,290.1L253.6,290.1L254.1,290.6L254.1,291.6L254.1,292.6L253.6,293.1L253.1,293.6L253.1,294.6L252.6,295.1L251.6,295.1L251.1,295.6L251.6,296.1L252.1,296.6L252.1,297.6L252.1,298.6L252.1,299.6L251.6,300.1L251.1,300.6L251.6,301.1L252.1,301.6L251.6,302.1L251.1,302.6L251.1,303.6L250.6,304.1L250.1,304.6L250.6,305.1L251.1,305.6L251.1,306.6L250.6,307.1L250.1,307.6L250.6,308.1L251.1,308.6L250.6,309.1L250.1,309.6L250.6,310.1L251.1,310.6L251.1,311.6L251.1,312.6L250.6,313.1L250.1,313.6L250.6,314.1L251.1,314.6L251.1,315.6L250.6,316.1L250.1,316.6L250.1,317.6L250.1,318.6L250.1,319.6L250.1,320.6L250.1,321.6L250.1,322.6L250.1,323.6L250.1,324.6L250.1,325.6L249.6,326.1L249.1,325.6L249.1,324.6L249.1,323.6L249.1,322.6L248.6,322.1L248.1,321.6L248.1,320.6L248.1,319.6L248.1,318.6L248.1,317.6L247.6,317.1L247.1,316.6L247.1,315.6L246.6,315.1L246.1,314.6L246.1,313.6L246.1,312.6L246.1,311.6L245.6,311.1L245.1,310.6L245.1,309.6L244.6,309.1L244.1,308.6L244.1,307.6L243.6,307.1L243.1,306.6L242.6,306.1L242.1,305.6L242.6,305.1L243.1,304.6L242.6,304.1L241.6,304.1L241.1,303.6L240.6,303.1L240.1,302.6L240.1,301.6L240.6,301.1L241.1,300.6L240.6,300.1L239.6,300.1L238.6,300.1L238.1,299.6L237.6,299.1L237.1,298.6L236.6,298.1L236.1,297.6L236.6,297.1L237.6,297.1L238.1,296.6L238.1,295.6L237.6,295.1L236.6,295.1L236.1,295.6L235.6,296.1L235.1,295.6L234.6,295.1L234.1,294.6L233.6,294.1L233.1,293.6L232.6,293.1L232.1,292.6L232.6,292.1L233.1,291.6L233.1,290.6L233.1,289.6L232.6,289.1L231.6,289.1L230.6,289.1L230.1,289.6L229.6,290.1L229.1,289.6L228.6,289.1L228.1,288.6L228.1,287.6L227.6,287.1L227.1,287.6L226.6,288.1L226.1,287.6L225.6,287.1L224.6,287.1L224.1,286.6L224.1,285.6L224.6,285.1L225.1,284.6L225.1,283.6L225.1,282.6L224.6,282.1L224.1,281.6L224.1,280.6L223.6,280.1L223.1,280.6L222.6,281.1L221.6,281.1L221.1,281.6L220.6,282.1L220.1,282.6L220.1,283.6L219.6,284.1L219.1,283.6L219.1,282.6L218.6,282.1L217.6,282.1L217.1,281.6L216.6,281.1L216.1,280.6L215.6,280.1L214.6,280.1L214.1,280.6L213.6,281.1L213.1,280.6L212.6,280.1L211.6,280.1L211.1,279.6L210.6,279.1L210.1,279.6L209.6,280.1L208.6,280.1L208.1,279.6L208.1,278.6L208.6,278.1L209.1,277.6L209.6,277.1L210.1,276.6L210.1,275.6L210.1,274.6L210.1,273.6L209.6,273.1L209.1,272.6L208.6,272.1L207.6,272.1L206.6,272.1L206.1,271.6L206.6,271.1L207.1,270.6L207.1,269.6L206.6,269.1L205.6,269.1L205.1,269.6L205.1,270.6L204.6,271.1L203.6,271.1L203.1,271.6L202.6,272.1L202.1,272.6L201.6,273.1L201.1,273.6L201.1,274.6L201.1,275.6L201.1,276.6L201.1,277.6L200.6,278.1L200.1,277.6L199.6,277.1L198.6,277.1L198.1,276.6L197.6,276.1L196.6,276.1L195.6,276.1L194.6,276.1L193.6,276.1L192.6,276.1L192.1,276.6L191.6,277.1L191.1,276.6L191.6,276.1L192.1,275.6L192.1,274.6L191.6,274.1L190.6,274.1L189.6,274.1L189.1,274.6L189.1,275.6L189.1,276.6L188.6,277.1L187.6,277.1L186.6,277.1L185.6,277.1L185.1,277.6L184.6,278.1L183.6,278.1L182.6,278.1L181.6,278.1L181.1,278.6L180.6,279.1L179.6,279.1L179.1,279.6L178.6,280.1L177.6,280.1L177.1,280.6L176.6,281.1L175.6,281.1L175.1,281.6L174.6,282.1L174.1,281.6L174.6,281.1L175.1,280.6L175.6,280.1L176.1,279.6L176.6,279.1L177.1,278.6L177.1,277.6L177.1,276.6L177.6,276.1L178.1,275.6L177.6,275.1L177.1,274.6L177.6,274.1L178.1,273.6L177.6,273.1L177.1,272.6L177.1,271.6L176.6,271.1L176.1,270.6L176.1,269.6L175.6,269.1L174.6,269.1L174.1,268.6L174.6,268.1L175.1,267.6L175.1,266.6L175.1,265.6L174.6,265.1L174.1,265.6L173.6,266.1L173.1,266.6L172.6,267.1L171.6,267.1L171.1,266.6L170.6,266.1L169.6,266.1L168.6,266.1L168.1,266.6L167.6,267.1L166.6,267.1L166.1,266.6L166.1,265.6L166.6,265.1L167.1,264.6L166.6,264.1L166.1,263.6L165.6,263.1L164.6,263.1L163.6,263.1L163.1,262.6L162.6,262.1L162.1,262.6L162.1,263.6L161.6,264.1L161.1,264.6L160.6,265.1L160.1,265.6L160.6,266.1L161.1,266.6L161.1,267.6L161.6,268.1L162.6,268.1L163.1,268.6L162.6,269.1L161.6,269.1L161.1,269.6L160.6,270.1L159.6,270.1L159.1,270.6L159.1,271.6L159.1,272.6L158.6,273.1L157.6,273.1L156.6,273.1L156.1,273.6L156.6,274.1L157.1,274.6L157.6,275.1L158.1,275.6L158.1,276.6L158.6,277.1L159.1,277.6L158.6,278.1L158.1,278.6L158.6,279.1L159.1,279.6L159.1,280.6L159.6,281.1L160.6,281.1L161.1,281.6L161.6,282.1L162.1,282.6L162.6,283.1L163.6,283.1L164.1,283.6L164.6,284.1L165.6,284.1L166.1,284.6L165.6,285.1L164.6,285.1L163.6,285.1L162.6,285.1L161.6,285.1L161.1,285.6L160.6,286.1L159.6,286.1L159.1,286.6L158.6,287.1L157.6,287.1L156.6,287.1L156.1,287.6L155.6,288.1L155.1,288.6L154.6,289.1L154.1,289.6L153.6,290.1L153.1,289.6L153.1,288.6L152.6,288.1L151.6,288.1L151.1,288.6L151.1,289.6L151.6,290.1L152.1,290.6L151.6,291.1L150.6,291.1L150.1,291.6L149.6,292.1L149.1,292.6L148.6,293.1L148.1,293.6L148.1,294.6L147.6,295.1L147.1,295.6L147.1,296.6L146.6,297.1L146.1,296.6L146.1,295.6L146.1,294.6L145.6,294.1L144.6,294.1L144.1,293.6L143.6,293.1L143.1,293.6L142.6,294.1L141.6,294.1L141.1,293.6L140.6,293.1L139.6,293.1L139.1,293.6L139.1,294.6L139.6,295.1L140.1,295.6L140.1,296.6L139.6,297.1L139.1,297.6L139.6,298.1L140.1,298.6L140.6,299.1L141.1,299.6L141.6,300.1L142.6,300.1L143.1,300.6L142.6,301.1L142.1,301.6L141.6,302.1L141.1,302.6L141.1,303.6L140.6,304.1L139.6,304.1L139.1,304.6L139.1,305.6L139.1,306.6L139.1,307.6L139.1,308.6L138.6,309.1L138.1,308.6L138.1,307.6L137.6,307.1L136.6,307.1L135.6,307.1L135.1,307.6L135.1,308.6L135.1,309.6L135.6,310.1L136.6,310.1L137.6,310.1L138.1,310.6L137.6,311.1L137.1,311.6L137.1,312.6L136.6,313.1L136.1,313.6L136.1,314.6L135.6,315.1L134.6,315.1L134.1,315.6L134.1,316.6L134.6,317.1L135.1,316.6L135.6,316.1L136.1,316.6L135.6,317.1L135.1,317.6L135.1,318.6L134.6,319.1L134.1,319.6L134.1,320.6L134.1,321.6L134.1,322.6L134.1,323.6L134.1,324.6L134.1,325.6L134.1,326.6L134.1,327.6L134.1,328.6L134.1,329.6L134.1,330.6L134.1,331.6L134.1,332.6L134.1,333.6L134.1,334.6L133.6,335.1L133.1,334.6L133.1,333.6L133.1,332.6L132.6,332.1L132.1,331.6L132.1,330.6L131.6,330.1L131.1,329.6L131.1,328.6L130.6,328.1L130.1,327.6L129.6,327.1L129.1,326.6L128.6,326.1L128.1,325.6L127.6,325.1L127.1,324.6L126.6,324.1L126.1,323.6L125.6,323.1L125.1,322.6L125.1,321.6L124.6,321.1L123.6,321.1L122.6,321.1L122.1,320.6L122.1,319.6L122.1,318.6L121.6,318.1L120.6,318.1L120.1,318.6L119.6,319.1L118.6,319.1L118.1,318.6L117.6,318.1L116.6,318.1L115.6,318.1L115.1,317.6L115.1,316.6L115.1,315.6L114.6,315.1L114.1,314.6L113.6,314.1L113.1,314.6L112.6,315.1L112.1,315.6L112.1,316.6L112.1,317.6L111.6,318.1L111.1,317.6L110.6,317.1L109.6,317.1L109.1,317.6L108.6,318.1L108.1,317.6L107.6,317.1L107.1,317.6L106.6,318.1L105.6,318.1L105.1,318.6L104.6,319.1L103.6,319.1L103.1,319.6L102.6,320.1L102.1,320.6L101.6,321.1L101.1,320.6L101.6,320.1L102.1,319.6L102.1,318.6L102.6,318.1L103.1,317.6L102.6,317.1L102.1,316.6L101.6,316.1L101.1,315.6L100.6,315.1L99.6,315.1L98.6,315.1L98.1,314.6L97.6,314.1L96.6,314.1L96.1,314.6L96.1,315.6L96.1,316.6L95.6,317.1L95.1,317.6L95.1,318.6L95.1,319.6L95.6,320.1L96.1,320.6L96.6,321.1L97.1,321.6L96.6,322.1L96.1,322.6L95.6,323.1L95.1,323.6L94.6,324.1L93.6,324.1L93.1,324.6L92.6,325.1L92.1,325.6L92.1,326.6L91.6,327.1L91.1,326.6L90.6,326.1L89.6,326.1L89.1,326.6L89.1,327.6L89.6,328.1L90.1,328.6L90.1,329.6L89.6,330.1L89.1,330.6L88.6,331.1L88.1,331.6L88.1,332.6L88.1,333.6L87.6,334.1L87.1,334.6L87.6,335.1L88.1,335.6L87.6,336.1L87.1,336.6L87.1,337.6L87.1,338.6L87.1,339.6L86.6,340.1L86.1,339.6L86.1,338.6L85.6,338.1L85.1,337.6L84.6,337.1L84.1,336.6L83.6,336.1L83.1,335.6L82.6,335.1L81.6,335.1L81.1,334.6L80.6,334.1L79.6,334.1L79.1,334.6L78.6,335.1L77.6,335.1L77.1,335.6L76.6,336.1L76.1,335.6L76.1,334.6L75.6,334.1L75.1,334.6L74.6,335.1L74.1,335.6L74.1,336.6L73.6,337.1L73.1,337.6L73.1,338.6L72.6,339.1L72.1,339.6L71.6,340.1L71.1,340.6L71.1,341.6L71.1,342.6L70.6,343.1L70.1,342.6L69.6,342.1L69.1,341.6L68.6,341.1L68.1,341.6L67.6,342.1L67.1,341.6L66.6,341.1L66.1,341.6L66.1,342.6L65.6,343.1L65.1,343.6L64.6,344.1L64.1,344.6L64.1,345.6L64.6,346.1L65.1,346.6L65.6,347.1L66.1,347.6L66.1,348.6L66.6,349.1L67.1,348.6L67.6,348.1L68.1,348.6L68.6,349.1L69.1,348.6L69.6,348.1L70.1,347.6L70.6,347.1L71.1,347.6L71.1,348.6L71.1,349.6L71.6,350.1L72.1,350.6L72.6,351.1L73.1,351.6L73.1,352.6L73.6,353.1L74.1,353.6L74.1,354.6L74.6,355.1L75.1,355.6L75.6,356.1L76.1,355.6L76.1,354.6L76.6,354.1L77.1,354.6L77.6,355.1L78.6,355.1L79.1,355.6L79.6,356.1L80.6,356.1L81.1,355.6L81.6,355.1L82.6,355.1L83.1,354.6L83.6,354.1L84.1,353.6L84.6,353.1L85.1,352.6L85.6,352.1L86.1,351.6L86.1,350.6L86.6,350.1L87.1,350.6L87.1,351.6L87.1,352.6L87.1,353.6L87.6,354.1L88.1,354.6L87.6,355.1L87.1,355.6L87.6,356.1L88.1,356.6L88.1,357.6L88.1,358.6L88.6,359.1L89.1,359.6L89.6,360.1L90.1,360.6L90.1,361.6L89.6,362.1L89.1,362.6L89.1,363.6L89.6,364.1L90.6,364.1L91.1,363.6L91.6,363.1L92.1,363.6L92.1,364.6L92.6,365.1L93.1,365.6L93.6,366.1L94.6,366.1L95.1,366.6L95.6,367.1L96.1,367.6L96.6,368.1L97.1,368.6L96.6,369.1L96.1,369.6L95.6,370.1L95.1,370.6L95.1,371.6L95.1,372.6L95.6,373.1L96.1,373.6L96.1,374.6L96.1,375.6L96.6,376.1L97.6,376.1L98.1,375.6L98.6,375.1L99.6,375.1L100.6,375.1L101.1,374.6L101.6,374.1L102.1,373.6L102.6,373.1L103.1,372.6L102.6,372.1L102.1,371.6L102.1,370.6L101.6,370.1L101.1,369.6L101.6,369.1L102.1,369.6L102.6,370.1L103.1,370.6L103.6,371.1L104.6,371.1L105.1,371.6L105.6,372.1L106.6,372.1L107.1,372.6L107.6,373.1L108.1,372.6L108.6,372.1L109.1,372.6L109.6,373.1L110.6,373.1L111.1,372.6L111.6,372.1L112.1,372.6L112.1,373.6L112.1,374.6L112.6,375.1L113.1,375.6L113.6,376.1L114.1,375.6L114.6,375.1L115.1,374.6L115.1,373.6L115.1,372.6L115.6,372.1L116.6,372.1L117.6,372.1L118.1,371.6L118.6,371.1L119.6,371.1L120.1,371.6L120.6,372.1L121.6,372.1L122.1,371.6L122.1,370.6L122.1,369.6L122.6,369.1L123.6,369.1L124.6,369.1L125.1,368.6L125.1,367.6L125.6,367.1L126.1,366.6L126.6,366.1L127.1,365.6L127.6,365.1L128.1,364.6L128.6,364.1L129.1,363.6L129.6,363.1L130.1,362.6L130.6,362.1L131.1,361.6L131.1,360.6L131.6,360.1L132.1,359.6L132.1,358.6L132.6,358.1L133.1,357.6L133.1,356.6L133.1,355.6L133.6,355.1L134.1,355.6L134.1,356.6L134.1,357.6L134.1,358.6L134.1,359.6L134.1,360.6L134.1,361.6L134.1,362.6L134.1,363.6L134.1,364.6L134.1,365.6L134.1,366.6L134.1,367.6L134.1,368.6L134.1,369.6L134.1,370.6L134.6,371.1L135.1,371.6L135.1,372.6L135.6,373.1L136.1,373.6L135.6,374.1L135.1,373.6L134.6,373.1L134.1,373.6L134.1,374.6L134.6,375.1L135.6,375.1L136.1,375.6L136.1,376.6L136.6,377.1L137.1,377.6L137.1,378.6L137.6,379.1L138.1,379.6L137.6,380.1L136.6,380.1L135.6,380.1L135.1,380.6L135.1,381.6L135.1,382.6L135.6,383.1L136.6,383.1L137.6,383.1L138.1,382.6L138.1,381.6L138.6,381.1L139.1,381.6L139.1,382.6L139.1,383.6L139.1,384.6L139.1,385.6L139.6,386.1L140.6,386.1L141.1,386.6L141.1,387.6L141.6,388.1L142.1,388.6L142.6,389.1L143.1,389.6L142.6,390.1L141.6,390.1L141.1,390.6L140.6,391.1L140.1,391.6L139.6,392.1L139.1,392.6L139.6,393.1L140.1,393.6L140.1,394.6L139.6,395.1L139.1,395.6L139.1,396.6L139.6,397.1L140.6,397.1L141.1,396.6L141.6,396.1L142.6,396.1L143.1,396.6L143.6,397.1L144.1,396.6L144.6,396.1L145.6,396.1L146.1,395.6L146.1,394.6L146.1,393.6L146.6,393.1L147.1,393.6L147.1,394.6L147.6,395.1L148.1,395.6L148.1,396.6L148.6,397.1L149.1,397.6L149.6,398.1L150.1,398.6L150.6,399.1L151.6,399.1L152.1,399.6L151.6,400.1L151.1,400.6L151.1,401.6L151.6,402.1L152.6,402.1L153.1,401.6L153.1,400.6L153.6,400.1L154.1,400.6L154.6,401.1L155.1,401.6L155.6,402.1L156.1,402.6L156.6,403.1L157.6,403.1L158.6,403.1L159.1,403.6L159.6,404.1L160.6,404.1L161.1,404.6L161.6,405.1L162.6,405.1L163.6,405.1L164.6,405.1L165.6,405.1L166.1,405.6L165.6,406.1L164.6,406.1L164.1,406.6L163.6,407.1L162.6,407.1L162.1,407.6L161.6,408.1L161.1,408.6L160.6,409.1L159.6,409.1L159.1,409.6L159.1,410.6L158.6,411.1L158.1,411.6L158.6,412.1L159.1,412.6L158.6,413.1L158.1,413.6L158.1,414.6L157.6,415.1L157.1,415.6L156.6,416.1L156.1,416.6L156.6,417.1L157.6,417.1L158.6,417.1L159.1,417.6L159.1,418.6L159.1,419.6L159.6,420.1L160.6,420.1L161.1,420.6L161.6,421.1L162.6,421.1L163.1,421.6L162.6,422.1L161.6,422.1L161.1,422.6L161.1,423.6L160.6,424.1L160.1,424.6L160.6,425.1L161.1,425.6L161.6,426.1L162.1,426.6L162.1,427.6L162.6,428.1L163.1,427.6L163.6,427.1L164.6,427.1L165.6,427.1L166.1,426.6L166.6,426.1L167.1,425.6L166.6,425.1L166.1,424.6L166.1,423.6L166.6,423.1L167.6,423.1L168.1,423.6L168.6,424.1L169.6,424.1L170.6,424.1L171.1,423.6L171.6,423.1L172.6,423.1L173.1,423.6L173.6,424.1L174.1,424.6L174.6,425.1L175.1,424.6L175.1,423.6L175.1,422.6L174.6,422.1L174.1,421.6L174.6,421.1L175.6,421.1L176.1,420.6L176.1,419.6L176.6,419.1L177.1,418.6L177.1,417.6L177.6,417.1L178.1,416.6L177.6,416.1L177.1,415.6L177.6,415.1L178.1,414.6L177.6,414.1L177.1,413.6L177.1,412.6L177.1,411.6L176.6,411.1L176.1,410.6L175.6,410.1L175.1,409.6L174.6,409.1L174.1,408.6L174.6,408.1L175.1,408.6L175.6,409.1L176.6,409.1L177.1,409.6L177.6,410.1L178.6,410.1L179.1,410.6L179.6,411.1L180.6,411.1L181.1,411.6L181.6,412.1L182.6,412.1L183.6,412.1L184.6,412.1L185.1,412.6L185.6,413.1L186.6,413.1L187.6,413.1L188.6,413.1L189.1,413.6L189.1,414.6L189.1,415.6L189.6,416.1L190.6,416.1L191.6,416.1L192.1,415.6L192.1,414.6L191.6,414.1L191.1,413.6L191.6,413.1L192.1,413.6L192.6,414.1L193.6,414.1L194.6,414.1L195.6,414.1L196.6,414.1L197.6,414.1L198.1,413.6L198.6,413.1L199.6,413.1L200.1,412.6L200.6,412.1L201.1,412.6L201.1,413.6L201.1,414.6L201.1,415.6L201.1,416.6L201.6,417.1L202.1,417.6L202.6,418.1L203.1,418.6L203.6,419.1L204.6,419.1L205.1,419.6L205.1,420.6L205.6,421.1L206.6,421.1L207.1,420.6L207.1,419.6L206.6,419.1L206.1,418.6L206.6,418.1L207.6,418.1L208.6,418.1L209.1,417.6L209.6,417.1L210.1,416.6L210.1,415.6L210.1,414.6L210.1,413.6L209.6,413.1L209.1,412.6L208.6,412.1L208.1,411.6L208.1,410.6L208.6,410.1L209.6,410.1L210.1,410.6L210.6,411.1L211.1,410.6L211.6,410.1L212.6,410.1L213.1,409.6L213.6,409.1L214.1,409.6L214.6,410.1L215.6,410.1L216.1,409.6L216.6,409.1L217.1,408.6L217.6,408.1L218.6,408.1L219.1,407.6L219.1,406.6L219.6,406.1L220.1,406.6L220.1,407.6L220.6,408.1L221.1,408.6L221.6,409.1L222.6,409.1L223.1,409.6L223.6,410.1L224.1,409.6L224.1,408.6L224.6,408.1L225.1,407.6L225.1,406.6L225.1,405.6L224.6,405.1L224.1,404.6L224.1,403.6L224.6,403.1L225.6,403.1L226.1,402.6L226.6,402.1L227.1,402.6L227.6,403.1L228.1,402.6L228.1,401.6L228.6,401.1L229.1,400.6L229.6,400.1L230.1,400.6L230.6,401.1L231.6,401.1L232.6,401.1L233.1,400.6L233.1,399.6L233.1,398.6L232.6,398.1L232.1,397.6L232.6,397.1L233.1,396.6L233.6,396.1L234.1,395.6L234.6,395.1L235.1,394.6L235.6,394.1L236.1,394.6L236.6,395.1L237.6,395.1L238.1,394.6L238.1,393.6L237.6,393.1L236.6,393.1L236.1,392.6L236.6,392.1L237.1,391.6L237.6,391.1L238.1,390.6L238.6,390.1L239.6,390.1L240.6,390.1L241.1,389.6L240.6,389.1L240.1,388.6L240.1,387.6L240.6,387.1L241.1,386.6L241.6,386.1L242.6,386.1L243.1,385.6L242.6,385.1L242.1,384.6L242.6,384.1L243.1,383.6L243.6,383.1L244.1,382.6L244.1,381.6L244.6,381.1L245.1,380.6L245.1,379.6L245.6,379.1L246.1,378.6L246.1,377.6L246.1,376.6L246.1,375.6L246.6,375.1L247.1,374.6L247.1,373.6L247.6,373.1L248.1,372.6L248.1,371.6L248.1,370.6L248.1,369.6L248.1,368.6L248.6,368.1L249.1,367.6L249.1,366.6L249.1,365.6L249.1,364.6L249.6,364.1L250.1,364.6L250.1,365.6L250.1,366.6L250.1,367.6L250.1,368.6L250.1,369.6L250.1,370.6L250.1,371.6L250.1,372.6L250.1,373.6L250.6,374.1L251.1,374.6L251.1,375.6L250.6,376.1L250.1,376.6L250.6,377.1L251.1,377.6L251.1,378.6L251.1,379.6L250.6,380.1L250.1,380.6L250.6,381.1L251.1,381.6L250.6,382.1L250.1,382.6L250.6,383.1L251.1,383.6L251.1,384.6L250.6,385.1L250.1,385.6L250.6,386.1L251.1,386.6L251.1,387.6L251.6,388.1L252.1,388.6L251.6,389.1L251.1,389.6L251.6,390.1L252.1,390.6L252.1,391.6L252.1,392.6L252.1,393.6L251.6,394.1L251.1,394.6L251.6,395.1L252.6,395.1L253.1,395.6L253.1,396.6L253.6,397.1L254.1,397.6L254.1,398.6L254.1,399.6L253.6,400.1L252.6,400.1L252.1,400.6L252.1,401.6L252.6,402.1L253.6,402.1L254.6,402.1L255.1,402.6L255.1,403.6L255.6,404.1L256.1,404.6L256.1,405.6L256.1,406.6L256.6,407.1L257.1,407.6L257.6,408.1L258.1,408.6L257.6,409.1L257.1,408.6L256.6,408.1L256.1,408.6L255.6,409.1L254.6,409.1L254.1,409.6L254.1,410.6L254.1,411.6L254.6,412.1L255.6,412.1L256.1,412.6L256.6,413.1L257.1,412.6L257.6,412.1L258.1,411.6L258.6,411.1L259.1,411.6L259.1,412.6L259.1,413.6L259.1,414.6L259.6,415.1L260.1,415.6L259.6,416.1L259.1,416.6L259.6,417.1L260.6,417.1L261.1,417.6L261.1,418.6L261.6,419.1L262.1,419.6L262.6,420.1L263.1,420.6L263.1,421.6L262.6,422.1L261.6,422.1L260.6,422.1L260.1,422.6L260.1,423.6L260.1,424.6L259.6,425.1L259.1,425.6L259.6,426.1L260.1,426.6L259.6,427.1L259.1,427.6L259.1,428.6L259.6,429.1L260.6,429.1L261.1,428.6L261.6,428.1L262.1,428.6L262.6,429.1L263.6,429.1L264.6,429.1L265.1,428.6L265.6,428.1L266.1,427.6L266.6,427.1L267.6,427.1L268.1,427.6L268.1,428.6L268.6,429.1L269.1,429.6L269.6,430.1L270.1,430.6L270.1,431.6L270.6,432.1L271.1,432.6L271.1,433.6L271.1,434.6L271.6,435.1L272.6,435.1L273.6,435.1L274.1,435.6L274.6,436.1L275.1,436.6L275.6,437.1L276.1,437.6L276.6,438.1L277.1,438.6L277.6,439.1L278.6,439.1L279.1,439.6L279.6,440.1L280.6,440.1L281.1,440.6L281.6,441.1L282.6,441.1L283.1,441.6L282.6,442.1L281.6,442.1L280.6,442.1L279.6,442.1L278.6,442.1L278.1,442.6L277.6,443.1L276.6,443.1L276.1,443.6L275.6,444.1L275.1,444.6L275.1,445.6L275.1,446.6L275.1,447.6L274.6,448.1L274.1,447.6L273.6,447.1L273.1,447.6L273.1,448.6L273.6,449.1L274.6,449.1L275.1,449.6L275.1,450.6L275.1,451.6L275.6,452.1L276.1,452.6L276.1,453.6L275.6,454.1L275.1,454.6L275.1,455.6L275.6,456.1L276.1,456.6L275.6,457.1L275.1,457.6L275.6,458.1L276.6,458.1L277.1,457.6L277.6,457.1L278.6,457.1L279.1,456.6L279.1,455.6L279.6,455.1L280.6,455.1L281.1,455.6L281.6,456.1L282.6,456.1L283.6,456.1L284.1,456.6L284.6,457.1L285.1,456.6L285.1,455.6L285.6,455.1L286.1,454.6L286.6,454.1L287.6,454.1L288.1,453.6L288.1,452.6L288.6,452.1L289.1,451.6L289.1,450.6L289.1,449.6L289.1,448.6L289.1,447.6L289.6,447.1L290.1,447.6L290.6,448.1L291.1,448.6L291.1,449.6L291.6,450.1L292.1,450.6L292.6,451.1L293.6,451.1L294.1,451.6L294.6,452.1L295.1,452.6L295.6,453.1L296.6,453.1L297.1,453.6L296.6,454.1L296.1,454.6L296.1,455.6L296.6,456.1L297.6,456.1L298.1,455.6L298.6,455.1L299.6,455.1L300.1,455.6L300.6,456.1L301.6,456.1L302.6,456.1L303.6,456.1L304.1,456.6L303.6,457.1L303.1,457.6L302.6,458.1L302.1,458.6L302.1,459.6L302.6,460.1L303.1,460.6L303.1,461.6L303.6,462.1L304.6,462.1L305.6,462.1L306.6,462.1L307.1,461.6L307.6,461.1L308.1,460.6L308.1,459.6L308.1,458.6L308.6,458.1L309.1,458.6L309.6,459.1L310.6,459.1L311.1,459.6L311.6,460.1L312.6,460.1L313.6,460.1L314.1,460.6L314.1,461.6L314.6,462.1L315.1,462.6L315.6,463.1L316.1,462.6L316.6,462.1L317.1,461.6L317.6,461.1L318.6,461.1L319.6,461.1L320.6,461.1L321.1,461.6L321.6,462.1L322.1,461.6L322.6,461.1L323.6,461.1L324.1,461.6L324.6,462.1L325.1,461.6L325.6,461.1L326.6,461.1L327.6,461.1L328.6,461.1L329.6,461.1L330.6,461.1L331.1,460.6L331.6,460.1L332.6,460.1L333.6,460.1L334.6,460.1L335.6,460.1L336.6,460.1L337.1,460.6L336.6,461.1L335.6,461.1L334.6,461.1L334.1,461.6L333.6,462.1L332.6,462.1L332.1,462.6L331.6,463.1L331.1,463.6L330.6,464.1L330.1,464.6L329.6,465.1L329.1,465.6L329.1,466.6L328.6,467.1L328.1,467.6L327.6,468.1L327.1,468.6L327.1,469.6L327.1,470.6L326.6,471.1L325.6,471.1L325.1,471.6L325.6,472.1L326.1,472.6L326.1,473.6L326.1,474.6L326.1,475.6L325.6,476.1L324.6,476.1L324.1,476.6L323.6,477.1L323.1,477.6L323.6,478.1L324.6,478.1L325.6,478.1L326.1,478.6L326.1,479.6L326.1,480.6L326.1,481.6L326.1,482.6L326.6,483.1L327.6,483.1L328.1,483.6L327.6,484.1L326.6,484.1L326.1,484.6L325.6,485.1L325.1,485.6L325.1,486.6L325.1,487.6L325.1,488.6L325.6,489.1L326.6,489.1L327.1,489.6L327.6,490.1L328.1,489.6L328.6,489.1L329.1,488.6L329.6,488.1L330.6,488.1L331.1,488.6L331.1,489.6L331.6,490.1L332.6,490.1L333.1,490.6L333.1,491.6L333.6,492.1L334.6,492.1L335.6,492.1L336.1,492.6L336.6,493.1L337.6,493.1L338.6,493.1L339.6,493.1L340.6,493.1L341.6,493.1L342.1,493.6L341.6,494.1L340.6,494.1L340.1,494.6L340.1,495.6L339.6,496.1L339.1,496.6L339.1,497.6L339.1,498.6L339.1,499.6L339.1,500.6L338.6,501.1L338.1,501.6L338.6,502.1L339.6,502.1L340.6,502.1L341.1,502.6L341.6,503.1L342.6,503.1L343.6,503.1L344.1,503.6L343.6,504.1L343.1,504.6L343.1,505.6L343.6,506.1L344.6,506.1L345.6,506.1L346.6,506.1L347.1,505.6L347.1,504.6L346.6,504.1L346.1,503.6L346.6,503.1L347.6,503.1L348.6,503.1L349.1,502.6L349.6,502.1L350.6,502.1L351.6,502.1L352.1,501.6L351.6,501.1L351.1,500.6L351.1,499.6L351.1,498.6L351.1,497.6L351.1,496.6L350.6,496.1L350.1,495.6L350.1,494.6L349.6,494.1L348.6,494.1L348.1,493.6L348.6,493.1L349.6,493.1L350.6,493.1L351.6,493.1L352.6,493.1L353.6,493.1L354.1,492.6L354.6,492.1L355.6,492.1L356.6,492.1L357.1,491.6L357.1,490.6L357.6,490.1L358.6,490.1L359.1,489.6L359.1,488.6L359.6,488.1L360.6,488.1L361.1,488.6L361.6,489.1L362.1,489.6L362.6,490.1L363.1,489.6L363.6,489.1L364.6,489.1L365.1,488.6L365.1,487.6L365.1,486.6L365.1,485.6L364.6,485.1L364.1,484.6L363.6,484.1L362.6,484.1L362.1,483.6L362.6,483.1L363.6,483.1L364.1,482.6L364.1,481.6L364.1,480.6L364.1,479.6L364.1,478.6L364.6,478.1L365.6,478.1L366.6,478.1L367.1,477.6L366.6,477.1L366.1,476.6L365.6,476.1L364.6,476.1L364.1,475.6L364.1,474.6L364.1,473.6L364.1,472.6L364.6,472.1L365.1,471.6L364.6,471.1L363.6,471.1L363.1,470.6L363.1,469.6L363.1,468.6L362.6,468.1L362.1,467.6L361.6,467.1L361.1,466.6L361.1,465.6L360.6,465.1L360.1,464.6L359.6,464.1L359.1,463.6L358.6,463.1L358.1,462.6L357.6,462.1L356.6,462.1L356.1,461.6L355.6,461.1L354.6,461.1L353.6,461.1L353.1,460.6L353.6,460.1L354.6,460.1L355.6,460.1L356.6,460.1L357.6,460.1L358.6,460.1L359.1,460.6L359.6,461.1L360.6,461.1L361.6,461.1L362.6,461.1L363.6,461.1L364.6,461.1L365.1,461.6L365.6,462.1L366.1,461.6L366.6,461.1L367.6,461.1L368.1,461.6L368.6,462.1L369.1,461.6L369.6,461.1L370.6,461.1L371.6,461.1L372.6,461.1L373.1,461.6L373.6,462.1L374.1,462.6L374.6,463.1L375.1,462.6L375.6,462.1L376.1,461.6L376.1,460.6L376.6,460.1L377.6,460.1L378.6,460.1L379.1,459.6L379.6,459.1L380.6,459.1L381.1,458.6L381.6,458.1L382.1,458.6L382.1,459.6L382.1,460.6L382.6,461.1L383.1,461.6L383.6,462.1L384.6,462.1L385.6,462.1L386.6,462.1L387.1,461.6L387.1,460.6L387.6,460.1L388.1,459.6L388.1,458.6L387.6,458.1L387.1,457.6L386.6,457.1L386.1,456.6L386.6,456.1L387.6,456.1L388.6,456.1L389.6,456.1L390.1,455.6L390.6,455.1L391.6,455.1L392.1,455.6L392.6,456.1L393.6,456.1L394.1,455.6L394.1,454.6L393.6,454.1L393.1,453.6L393.6,453.1L394.6,453.1L395.1,452.6L395.6,452.1L396.1,451.6L396.6,451.1L397.6,451.1L398.1,450.6L398.6,450.1L399.1,449.6L399.1,448.6L399.6,448.1L400.1,447.6L400.6,447.1L401.1,447.6L401.1,448.6L401.1,449.6L401.1,450.6L401.1,451.6L401.6,452.1L402.1,452.6L402.1,453.6L402.6,454.1L403.6,454.1L404.1,454.6L404.6,455.1L405.1,455.6L405.1,456.6L405.6,457.1L406.1,456.6L406.6,456.1L407.6,456.1L408.6,456.1L409.1,455.6L409.6,455.1L410.6,455.1L411.1,455.6L411.1,456.6L411.6,457.1L412.6,457.1L413.1,457.6L413.6,458.1L414.6,458.1L415.1,457.6L414.6,457.1L414.1,456.6L414.6,456.1L415.1,455.6L415.1,454.6L414.6,454.1L414.1,453.6L414.1,452.6L414.6,452.1L415.1,451.6L415.1,450.6L415.1,449.6L415.6,449.1L416.6,449.1L417.1,448.6L417.1,447.6L416.6,447.1L416.1,447.6L415.6,448.1L415.1,447.6L415.1,446.6L415.1,445.6L415.1,444.6L414.6,444.1L414.1,443.6L413.6,443.1L412.6,443.1L412.1,442.6L411.6,442.1L410.6,442.1L409.6,442.1L408.6,442.1L407.6,442.1L407.1,441.6L407.6,441.1L408.6,441.1L409.1,440.6L409.6,440.1L410.6,440.1L411.1,439.6L411.6,439.1L412.6,439.1L413.1,438.6L413.6,438.1L414.1,437.6L414.6,437.1L415.1,436.6L415.6,436.1L416.1,435.6L416.6,435.1L417.6,435.1L418.6,435.1L419.1,434.6L419.1,433.6L419.1,432.6L419.6,432.1L420.1,431.6L420.1,430.6L420.6,430.1L421.1,429.6L421.6,429.1L422.1,428.6L422.1,427.6L422.6,427.1L423.6,427.1L424.1,427.6L424.6,428.1L425.1,428.6L425.6,429.1L426.6,429.1L427.6,429.1L428.1,428.6L428.6,428.1L429.1,428.6L429.6,429.1L430.6,429.1L431.1,428.6L431.1,427.6L430.6,427.1L430.1,426.6L430.6,426.1L431.1,425.6L430.6,425.1L430.1,424.6L430.1,423.6L430.1,422.6L429.6,422.1L428.6,422.1L427.6,422.1L427.1,421.6L427.1,420.6L427.6,420.1L428.1,419.6L428.6,419.1L429.1,418.6L429.1,417.6L429.6,417.1L430.6,417.1L431.1,416.6L430.6,416.1L430.1,415.6L430.6,415.1L431.1,414.6L431.1,413.6L431.1,412.6L431.1,411.6L431.6,411.1L432.1,411.6L432.6,412.1L433.1,412.6L433.6,413.1L434.1,412.6L434.6,412.1L435.6,412.1L436.1,411.6L436.1,410.6L436.1,409.6L435.6,409.1L434.6,409.1L434.1,408.6L433.6,408.1L433.1,408.6L432.6,409.1L432.1,408.6L432.6,408.1L433.1,407.6L433.6,407.1L434.1,406.6L434.1,405.6L434.1,404.6L434.6,404.1L435.1,403.6L435.1,402.6L435.6,402.1L436.6,402.1L437.6,402.1L438.1,401.6L438.1,400.6L437.6,400.1L436.6,400.1L436.1,399.6L436.1,398.6L436.1,397.6L436.6,397.1L437.1,396.6L437.1,395.6L437.6,395.1L438.6,395.1L439.1,394.6L438.6,394.1L438.1,393.6L438.1,392.6L438.1,391.6L438.1,390.6L438.6,390.1L439.1,389.6L438.6,389.1L438.1,388.6L438.6,388.1L439.1,387.6L439.1,386.6L439.6,386.1L440.1,385.6L439.6,385.1L439.1,384.6L439.1,383.6L439.6,383.1L440.1,382.6L439.6,382.1L439.1,381.6L439.6,381.1L440.1,380.6L439.6,380.1L439.1,379.6L439.1,378.6L439.1,377.6L439.6,377.1L440.1,376.6L439.6,376.1L439.1,375.6L439.1,374.6L439.6,374.1L440.1,373.6L440.1,372.6L440.1,371.6L440.1,370.6L440.1,369.6L440.1,368.6L440.1,367.6L440.1,366.6L440.1,365.6L440.1,364.6L440.6,364.1L441.1,364.6L441.1,365.6L441.1,366.6L441.1,367.6L441.6,368.1L442.1,368.6L442.1,369.6L442.1,370.6L442.1,371.6L442.1,372.6L442.6,373.1L443.1,373.6L443.1,374.6L443.6,375.1L444.1,375.6L444.1,376.6L444.1,377.6L444.1,378.6L444.6,379.1L445.1,379.6L445.1,380.6L445.6,381.1L446.1,381.6L446.1,382.6L446.6,383.1L447.1,383.6L447.6,384.1L448.1,384.6L447.6,385.1L447.1,385.6L447.6,386.1L448.6,386.1L449.1,386.6L449.6,387.1L450.1,387.6L450.1,388.6L449.6,389.1L449.1,389.6L449.6,390.1L450.6,390.1L451.6,390.1L452.1,390.6L452.6,391.1L453.1,391.6L453.6,392.1L454.1,392.6L453.6,393.1L452.6,393.1L452.1,393.6L452.1,394.6L452.6,395.1L453.6,395.1L454.1,394.6L454.6,394.1L455.1,394.6L455.6,395.1L456.1,395.6L456.6,396.1L457.1,396.6L457.6,397.1L458.1,397.6L457.6,398.1L457.1,398.6L457.1,399.6L457.1,400.6L457.6,401.1L458.6,401.1L459.6,401.1L460.1,400.6L460.6,400.1L461.1,400.6L461.6,401.1L462.1,401.6L462.1,402.6L462.6,403.1L463.1,402.6L463.6,402.1L464.1,402.6L464.6,403.1L465.6,403.1L466.1,403.6L466.1,404.6L465.6,405.1L465.1,405.6L465.1,406.6L465.1,407.6L465.6,408.1L466.1,408.6L466.1,409.6L466.6,410.1L467.1,409.6L467.6,409.1L468.6,409.1L469.1,408.6L469.6,408.1L470.1,407.6L470.1,406.6L470.6,406.1L471.1,406.6L471.1,407.6L471.6,408.1L472.6,408.1L473.1,408.6L473.6,409.1L474.1,409.6L474.6,410.1L475.6,410.1L476.1,409.6L476.6,409.1L477.1,409.6L477.6,410.1L478.6,410.1L479.1,410.6L479.6,411.1L480.1,410.6L480.6,410.1L481.6,410.1L482.1,410.6L482.1,411.6L481.6,412.1L481.1,412.6L480.6,413.1L480.1,413.6L480.1,414.6L480.1,415.6L480.1,416.6L480.6,417.1L481.1,417.6L481.6,418.1L482.6,418.1L483.6,418.1L484.1,418.6L483.6,419.1L483.1,419.6L483.1,420.6L483.6,421.1L484.6,421.1L485.1,420.6L485.1,419.6L485.6,419.1L486.6,419.1L487.1,418.6L487.6,418.1L488.1,417.6L488.6,417.1L489.1,416.6L489.1,415.6L489.1,414.6L489.1,413.6L489.1,412.6L489.6,412.1L490.1,412.6L490.6,413.1L491.6,413.1L492.1,413.6L492.6,414.1L493.6,414.1L494.6,414.1L495.6,414.1L496.6,414.1L497.6,414.1L498.1,413.6L498.6,413.1L499.1,413.6L498.6,414.1L498.1,414.6L498.1,415.6L498.6,416.1L499.6,416.1L500.6,416.1L501.1,415.6L501.1,414.6L501.1,413.6L501.6,413.1L502.6,413.1L503.6,413.1L504.6,413.1L505.1,412.6L505.6,412.1L506.6,412.1L507.6,412.1L508.6,412.1L509.1,411.6L509.6,411.1L510.6,411.1L511.1,410.6L511.6,410.1L512.6,410.1L513.1,409.6L513.6,409.1L514.6,409.1L515.1,408.6L515.6,408.1L516.1,408.6L515.6,409.1L515.1,409.6L514.6,410.1L514.1,410.6L513.6,411.1L513.1,411.6L513.1,412.6L513.1,413.6L512.6,414.1L512.1,414.6L512.6,415.1L513.1,415.6L512.6,416.1L512.1,416.6L512.6,417.1L513.1,417.6L513.1,418.6L513.6,419.1L514.1,419.6L514.1,420.6L514.6,421.1L515.6,421.1L516.1,421.6L515.6,422.1L515.1,422.6L515.1,423.6L515.1,424.6L515.6,425.1L516.1,424.6L516.6,424.1L517.1,423.6L517.6,423.1L518.6,423.1L519.1,423.6L519.6,424.1L520.6,424.1L521.6,424.1L522.1,423.6L522.6,423.1L523.6,423.1L524.1,423.6L524.1,424.6L523.6,425.1L523.1,425.6L523.6,426.1L524.1,426.6L524.6,427.1L525.6,427.1L526.6,427.1L527.1,427.6L527.6,428.1L528.1,427.6L528.1,426.6L528.6,426.1L529.1,425.6L529.6,425.1L530.1,424.6L529.6,424.1L529.1,423.6L529.1,422.6L528.6,422.1L527.6,422.1L527.1,421.6L527.6,421.1L528.6,421.1L529.1,420.6L529.6,420.1L530.6,420.1L531.1,419.6L531.1,418.6L531.1,417.6L531.6,417.1L532.6,417.1L533.6,417.1L534.1,416.6L533.6,416.1L533.1,415.6L532.6,415.1L532.1,414.6L532.1,413.6L531.6,413.1L531.1,412.6L531.6,412.1L532.1,411.6L531.6,411.1L531.1,410.6L531.1,409.6L530.6,409.1L529.6,409.1L529.1,408.6L528.6,408.1L528.1,407.6L527.6,407.1L526.6,407.1L526.1,406.6L525.6,406.1L524.6,406.1L524.1,405.6L524.6,405.1L525.6,405.1L526.6,405.1L527.6,405.1L528.6,405.1L529.1,404.6L529.6,404.1L530.6,404.1L531.1,403.6L531.6,403.1L532.6,403.1L533.6,403.1L534.1,402.6L534.6,402.1L535.1,401.6L535.6,401.1L536.1,400.6L536.6,400.1L537.1,400.6L537.1,401.6L537.6,402.1L538.6,402.1L539.1,401.6L539.1,400.6L538.6,400.1L538.1,399.6L538.6,399.1L539.6,399.1L540.1,398.6L540.6,398.1L541.1,397.6L541.6,397.1L542.1,396.6L542.1,395.6L542.6,395.1L543.1,394.6L543.1,393.6L543.6,393.1L544.1,393.6L544.1,394.6L544.1,395.6L544.6,396.1L545.6,396.1L546.1,396.6L546.6,397.1L547.1,396.6L547.6,396.1L548.6,396.1L549.1,396.6L549.6,397.1L550.6,397.1L551.1,396.6L551.1,395.6L550.6,395.1L550.1,394.6L550.1,393.6L550.6,393.1L551.1,392.6L550.6,392.1L550.1,391.6L549.6,391.1L549.1,390.6L548.6,390.1L547.6,390.1L547.1,389.6L547.6,389.1L548.1,388.6L548.6,388.1L549.1,387.6L549.1,386.6L549.6,386.1L550.6,386.1L551.1,385.6L551.1,384.6L551.1,383.6L551.1,382.6L551.1,381.6L551.6,381.1L552.1,381.6L552.1,382.6L552.6,383.1L553.6,383.1L554.6,383.1L555.1,382.6L555.1,381.6L555.1,380.6L554.6,380.1L553.6,380.1L552.6,380.1L552.1,379.6L552.6,379.1L553.1,378.6L553.1,377.6L553.6,377.1L554.1,376.6L554.1,375.6L554.6,375.1L555.6,375.1L556.1,374.6L556.1,373.6L555.6,373.1L555.1,373.6L554.6,374.1L554.1,373.6L554.6,373.1L555.1,372.6L555.1,371.6L555.6,371.1L556.1,370.6L556.1,369.6L556.1,368.6L556.1,367.6L556.1,366.6L556.1,365.6L556.1,364.6L556.1,363.6L556.1,362.6L556.1,361.6L556.1,360.6L556.1,359.6L556.1,358.6L556.1,357.6L556.1,356.6L556.1,355.6L556.6,355.1L557.1,355.6L557.1,356.6L557.1,357.6L557.6,358.1L558.1,358.6L558.1,359.6L558.6,360.1L559.1,360.6L559.1,361.6L559.6,362.1L560.1,362.6L560.6,363.1L561.1,363.6L561.6,364.1L562.1,364.6L562.6,365.1L563.1,365.6L563.6,366.1L564.1,366.6L564.6,367.1L565.1,367.6L565.1,368.6L565.6,369.1L566.6,369.1L567.6,369.1L568.1,369.6L568.1,370.6L568.1,371.6L568.6,372.1L569.6,372.1L570.1,371.6L570.6,371.1L571.6,371.1L572.1,371.6L572.6,372.1L573.6,372.1L574.6,372.1L575.1,372.6L575.1,373.6L575.1,374.6L575.6,375.1L576.1,375.6L576.6,376.1L577.1,375.6L577.6,375.1L578.1,374.6L578.1,373.6L578.1,372.6L578.6,372.1L579.1,372.6L579.6,373.1L580.6,373.1L581.1,372.6L581.6,372.1L582.1,372.6L582.6,373.1L583.1,372.6L583.6,372.1L584.6,372.1L585.1,371.6L585.6,371.1L586.6,371.1L587.1,370.6L587.6,370.1L588.1,369.6L588.6,369.1L589.1,369.6L588.6,370.1L588.1,370.6L588.1,371.6L587.6,372.1L587.1,372.6L587.6,373.1L588.1,373.6L588.6,374.1L589.1,374.6L589.6,375.1L590.6,375.1L591.6,375.1L592.1,375.6L592.6,376.1L593.6,376.1L594.1,375.6L594.1,374.6L594.1,373.6L594.6,373.1L595.1,372.6L595.1,371.6L595.1,370.6L594.6,370.1L594.1,369.6L593.6,369.1L593.1,368.6L593.6,368.1L594.1,367.6L594.6,367.1L595.1,366.6L595.6,366.1L596.6,366.1L597.1,365.6L597.6,365.1L598.1,364.6L598.1,363.6L598.6,363.1L599.1,363.6L599.6,364.1L600.6,364.1L601.1,363.6L601.1,362.6L600.6,362.1L600.1,361.6L600.1,360.6L600.6,360.1L601.1,359.6L601.6,359.1L602.1,358.6L602.1,357.6L602.1,356.6L602.6,356.1L603.1,355.6L602.6,355.1L602.1,354.6L602.6,354.1L603.1,353.6L603.1,352.6L603.1,351.6L603.1,350.6L603.6,350.1L604.1,350.6L604.1,351.6L604.6,352.1L605.1,352.6L605.6,353.1L606.1,353.6L606.6,354.1L607.1,354.6L607.6,355.1L608.6,355.1L609.1,355.6L609.6,356.1L610.6,356.1L611.1,355.6L611.6,355.1L612.6,355.1L613.1,354.6L613.6,354.1L614.1,354.6L614.1,355.6L614.6,356.1L615.1,355.6L615.6,355.1L616.1,354.6L616.1,353.6L616.6,353.1L617.1,352.6L617.1,351.6L617.6,351.1L618.1,350.6L618.6,350.1L619.1,349.6L619.1,348.6L619.1,347.6L619.6,347.1L620.1,347.6L620.6,348.1L621.1,348.6L621.6,349.1L622.1,348.6L622.6,348.1L623.1,348.6L623.6,349.1L624.1,348.6L624.1,347.6L624.6,347.1L625.1,346.6L625.6,346.1L626.1,345.6L626.1,344.6L625.6,344.1L625.1,343.6L624.6,343.1L624.1,342.6L624.1,341.6L623.6,341.1L623.1,341.6L622.6,342.1L622.1,341.6L621.6,341.1L621.1,341.6L620.6,342.1L620.1,342.6L619.6,343.1L619.1,342.6L619.1,341.6L619.1,340.6L618.6,340.1L618.1,339.6L617.6,339.1L617.1,338.6L617.1,337.6L616.6,337.1L616.1,336.6L616.1,335.6L615.6,335.1L615.1,334.6L614.6,334.1L614.1,334.6L614.1,335.6L613.6,336.1L613.1,335.6L612.6,335.1L611.6,335.1L611.1,334.6L610.6,334.1L609.6,334.1L609.1,334.6L608.6,335.1L607.6,335.1L607.1,335.6L606.6,336.1L606.1,336.6L605.6,337.1L605.1,337.6L604.6,338.1L604.1,338.6L604.1,339.6L603.6,340.1L603.1,339.6L603.1,338.6L603.1,337.6L603.1,336.6L602.6,336.1L602.1,335.6L602.6,335.1L603.1,334.6L602.6,334.1L602.1,333.6L602.1,332.6L602.1,331.6L601.6,331.1L601.1,330.6L600.6,330.1L600.1,329.6L600.1,328.6L600.6,328.1L601.1,327.6L601.1,326.6L600.6,326.1L599.6,326.1L599.1,326.6L598.6,327.1L598.1,326.6L598.1,325.6L597.6,325.1L597.1,324.6L596.6,324.1L595.6,324.1L595.1,323.6L594.6,323.1L594.1,322.6L593.6,322.1L593.1,321.6L593.6,321.1L594.1,320.6L594.6,320.1L595.1,319.6L595.1,318.6L595.1,317.6L594.6,317.1L594.1,316.6L594.1,315.6L594.1,314.6L593.6,314.1L592.6,314.1L592.1,314.6L591.6,315.1L590.6,315.1L589.6,315.1L589.1,315.6L588.6,316.1L588.1,316.6L587.6,317.1L587.1,317.6L587.6,318.1L588.1,318.6L588.1,319.6L588.6,320.1L589.1,320.6L588.6,321.1L588.1,320.6L587.6,320.1L587.1,319.6L586.6,319.1L585.6,319.1L585.1,318.6L584.6,318.1L583.6,318.1L583.1,317.6L582.6,317.1L582.1,317.6L581.6,318.1L581.1,317.6L580.6,317.1L579.6,317.1L579.1,317.6L578.6,318.1L578.1,317.6L578.1,316.6L578.1,315.6L577.6,315.1L577.1,314.6L576.6,314.1L576.1,314.6L575.6,315.1L575.1,315.6L575.1,316.6L575.1,317.6L574.6,318.1L573.6,318.1L572.6,318.1L572.1,318.6L571.6,319.1L570.6,319.1L570.1,318.6L569.6,318.1L568.6,318.1L568.1,318.6L568.1,319.6L568.1,320.6L567.6,321.1L566.6,321.1L565.6,321.1L565.1,321.6L565.1,322.6L564.6,323.1L564.1,323.6L563.6,324.1L563.1,324.6L562.6,325.1L562.1,325.6L561.6,326.1L561.1,326.6L560.6,327.1L560.1,327.6L559.6,328.1L559.1,328.6L559.1,329.6L558.6,330.1L558.1,330.6L558.1,331.6L557.6,332.1L557.1,332.6L557.1,333.6L557.1,334.6L556.6,335.1L556.1,334.6L556.1,333.6L556.1,332.6L556.1,331.6L556.1,330.6L556.1,329.6L556.1,328.6L556.1,327.6L556.1,326.6L556.1,325.6L556.1,324.6L556.1,323.6L556.1,322.6L556.1,321.6L556.1,320.6L556.1,319.6L555.6,319.1L555.1,318.6L555.1,317.6L554.6,317.1L554.1,316.6L554.6,316.1L555.1,316.6L555.6,317.1L556.1,316.6L556.1,315.6L555.6,315.1L554.6,315.1L554.1,314.6L554.1,313.6L553.6,313.1L553.1,312.6L553.1,311.6L552.6,311.1L552.1,310.6L552.6,310.1L553.6,310.1L554.6,310.1L555.1,309.6L555.1,308.6L555.1,307.6L554.6,307.1L553.6,307.1L552.6,307.1L552.1,307.6L552.1,308.6L551.6,309.1L551.1,308.6L551.1,307.6L551.1,306.6L551.1,305.6L551.1,304.6L550.6,304.1L549.6,304.1L549.1,303.6L549.1,302.6L548.6,302.1L548.1,301.6L547.6,301.1L547.1,300.6L547.6,300.1L548.6,300.1L549.1,299.6L549.6,299.1L550.1,298.6L550.6,298.1L551.1,297.6L550.6,297.1L550.1,296.6L550.1,295.6L550.6,295.1L551.1,294.6L551.1,293.6L550.6,293.1L549.6,293.1L549.1,293.6L548.6,294.1L547.6,294.1L547.1,293.6L546.6,293.1L546.1,293.6L545.6,294.1L544.6,294.1L544.1,294.6L544.1,295.6L544.1,296.6L543.6,297.1L543.1,296.6L543.1,295.6L542.6,295.1L542.1,294.6L542.1,293.6L541.6,293.1L541.1,292.6L540.6,292.1L540.1,291.6L539.6,291.1L538.6,291.1L538.1,290.6L538.6,290.1L539.1,289.6L539.1,288.6L538.6,288.1L537.6,288.1L537.1,288.6L537.1,289.6L536.6,290.1L536.1,289.6L535.6,289.1L535.1,288.6L534.6,288.1L534.1,287.6L533.6,287.1L532.6,287.1L531.6,287.1L531.1,286.6L530.6,286.1L529.6,286.1L529.1,285.6L528.6,285.1L527.6,285.1L526.6,285.1L525.6,285.1L524.6,285.1L524.1,284.6L524.6,284.1L525.6,284.1L526.1,283.6L526.6,283.1L527.6,283.1L528.1,282.6L528.6,282.1L529.1,281.6L529.6,281.1L530.6,281.1L531.1,280.6L531.1,279.6L531.6,279.1L532.1,278.6L531.6,278.1L531.1,277.6L531.6,277.1L532.1,276.6L532.1,275.6L532.6,275.1L533.1,274.6L533.6,274.1L534.1,273.6L533.6,273.1L532.6,273.1L531.6,273.1L531.1,272.6L531.1,271.6L531.1,270.6L530.6,270.1L529.6,270.1L529.1,269.6L528.6,269.1L527.6,269.1L527.1,268.6L527.6,268.1L528.6,268.1L529.1,267.6L529.1,266.6L529.6,266.1L530.1,265.6L529.6,265.1L529.1,264.6L528.6,264.1L528.1,263.6L528.1,262.6L527.6,262.1L527.1,262.6L526.6,263.1L525.6,263.1L524.6,263.1L524.1,263.6L523.6,264.1L523.1,264.6L523.6,265.1L524.1,265.6L524.1,266.6L523.6,267.1L522.6,267.1L522.1,266.6L521.6,266.1L520.6,266.1L519.6,266.1L519.1,266.6L518.6,267.1L517.6,267.1L517.1,266.6L516.6,266.1L516.1,265.6L515.6,265.1L515.1,265.6L515.1,266.6L515.1,267.6L515.6,268.1L516.1,268.6L515.6,269.1L514.6,269.1L514.1,269.6L514.1,270.6L513.6,271.1L513.1,271.6L513.1,272.6L512.6,273.1L512.1,273.6L512.6,274.1L513.1,274.6L512.6,275.1L512.1,275.6L512.6,276.1L513.1,276.6L513.1,277.6L513.1,278.6L513.6,279.1L514.1,279.6L514.6,280.1L515.1,280.6L515.6,281.1L516.1,281.6L515.6,282.1L515.1,281.6L514.6,281.1L513.6,281.1L513.1,280.6L512.6,280.1L511.6,280.1L511.1,279.6L510.6,279.1L509.6,279.1L509.1,278.6L508.6,278.1L507.6,278.1L506.6,278.1L505.6,278.1L505.1,277.6L504.6,277.1L503.6,277.1L502.6,277.1L501.6,277.1L501.1,276.6L501.1,275.6L501.1,274.6L500.6,274.1L499.6,274.1L498.6,274.1L498.1,274.6L498.1,275.6L498.6,276.1L499.1,276.6L498.6,277.1L498.1,276.6L497.6,276.1L496.6,276.1L495.6,276.1L494.6,276.1L493.6,276.1L492.6,276.1L492.1,276.6L491.6,277.1L490.6,277.1L490.1,277.6L489.6,278.1L489.1,277.6L489.1,276.6L489.1,275.6L489.1,274.6L489.1,273.6L488.6,273.1L488.1,272.6L487.6,272.1L487.1,271.6L486.6,271.1L485.6,271.1L485.1,270.6L485.1,269.6L484.6,269.1L483.6,269.1L483.1,269.6L483.1,270.6L483.6,271.1L484.1,271.6L483.6,272.1L482.6,272.1L481.6,272.1L481.1,272.6L480.6,273.1L480.1,273.6L480.1,274.6L480.1,275.6L480.1,276.6L480.6,277.1L481.1,277.6L481.6,278.1L482.1,278.6L482.1,279.6L481.6,280.1L480.6,280.1L480.1,279.6L479.6,279.1L479.1,279.6L478.6,280.1L477.6,280.1L477.1,280.6L476.6,281.1L476.1,280.6L475.6,280.1L474.6,280.1L474.1,280.6L473.6,281.1L473.1,281.6L472.6,282.1L471.6,282.1L471.1,282.6L471.1,283.6L470.6,284.1L470.1,283.6L470.1,282.6L469.6,282.1L469.1,281.6L468.6,281.1L467.6,281.1L467.1,280.6L466.6,280.1L466.1,280.6L466.1,281.6L465.6,282.1L465.1,282.6L465.1,283.6L465.1,284.6L465.6,285.1L466.1,285.6L466.1,286.6L465.6,287.1L464.6,287.1L464.1,287.6L463.6,288.1L463.1,287.6L462.6,287.1L462.1,287.6L462.1,288.6L461.6,289.1L461.1,289.6L460.6,290.1L460.1,289.6L459.6,289.1L458.6,289.1L457.6,289.1L457.1,289.6L457.1,290.6L457.1,291.6L457.6,292.1L458.1,292.6L457.6,293.1L457.1,293.6L456.6,294.1L456.1,294.6L455.6,295.1L455.1,295.6L454.6,296.1L454.1,295.6L453.6,295.1L452.6,295.1L452.1,295.6L452.1,296.6L452.6,297.1L453.6,297.1L454.1,297.6L453.6,298.1L453.1,298.6L452.6,299.1L452.1,299.6L451.6,300.1L450.6,300.1L449.6,300.1L449.1,300.6L449.6,301.1L450.1,301.6L450.1,302.6L449.6,303.1L449.1,303.6L448.6,304.1L447.6,304.1L447.1,304.6L447.6,305.1L448.1,305.6L447.6,306.1L447.1,306.6L446.6,307.1L446.1,307.6L446.1,308.6L445.6,309.1L445.1,309.6L445.1,310.6L444.6,311.1L444.1,311.6L444.1,312.6L444.1,313.6L444.1,314.6L443.6,315.1L443.1,315.6L443.1,316.6L442.6,317.1L442.1,317.6L442.1,318.6L442.1,319.6L442.1,320.6L442.1,321.6L441.6,322.1L441.1,322.6L441.1,323.6L441.1,324.6L441.1,325.6L440.6,326.1L440.1,325.6L440.1,324.6L440.1,323.6L440.1,322.6L440.1,321.6L440.1,320.6L440.1,319.6L440.1,318.6L440.1,317.6L440.1,316.6L439.6,316.1L439.1,315.6L439.1,314.6L439.6,314.1L440.1,313.6L439.6,313.1L439.1,312.6L439.1,311.6L439.1,310.6L439.6,310.1L440.1,309.6L439.6,309.1L439.1,308.6L439.6,308.1L440.1,307.6L439.6,307.1L439.1,306.6L439.1,305.6L439.6,305.1L440.1,304.6L439.6,304.1L439.1,303.6L439.1,302.6L438.6,302.1L438.1,301.6L438.6,301.1L439.1,300.6L438.6,300.1L438.1,299.6L438.1,298.6L438.1,297.6L438.1,296.6L438.6,296.1L439.1,295.6L438.6,295.1L437.6,295.1L437.1,294.6L437.1,293.6L436.6,293.1L436.1,292.6L436.1,291.6L436.1,290.6L436.6,290.1L437.6,290.1L438.1,289.6L438.1,288.6L437.6,288.1L436.6,288.1L435.6,288.1L435.1,287.6L435.1,286.6L434.6,286.1L434.1,285.6L434.1,284.6L434.1,283.6L433.6,283.1L433.1,282.6L432.6,282.1L432.1,281.6L432.6,281.1L433.1,281.6L433.6,282.1L434.1,281.6L434.6,281.1L435.6,281.1L436.1,280.6L436.1,279.6L436.1,278.6L435.6,278.1L434.6,278.1L434.1,277.6L433.6,277.1L433.1,277.6L432.6,278.1L432.1,278.6L431.6,279.1L431.1,278.6L431.1,277.6L431.1,276.6L431.1,275.6L430.6,275.1L430.1,274.6L430.6,274.1L431.1,273.6L430.6,273.1L429.6,273.1L429.1,272.6L429.1,271.6L428.6,271.1L428.1,270.6L427.6,270.1L427.1,269.6L427.1,268.6L427.6,268.1L428.6,268.1L429.6,268.1L430.1,267.6L430.1,266.6L430.1,265.6L430.6,265.1L431.1,264.6L430.6,264.1L430.1,263.6L430.6,263.1L431.1,262.6L431.1,261.6L430.6,261.1L429.6,261.1L429.1,261.6L428.6,262.1L428.1,261.6L427.6,261.1L426.6,261.1L425.6,261.1L425.1,261.6L424.6,262.1L424.1,262.6L423.6,263.1L422.6,263.1L422.1,262.6L422.1,261.6L421.6,261.1L421.1,260.6L420.6,260.1L420.1,259.6L420.1,258.6L419.6,258.1L419.1,257.6L419.1,256.6L419.1,255.6L418.6,255.1L417.6,255.1L416.6,255.1L416.1,254.6L415.6,254.1L415.1,253.6L414.6,253.1L414.1,252.6L413.6,252.1L413.1,251.6L412.6,251.1L411.6,251.1L411.1,250.6L410.6,250.1L409.6,250.1L409.1,249.6L408.6,249.1L407.6,249.1L407.1,248.6L407.6,248.1L408.6,248.1L409.6,248.1L410.6,248.1L411.6,248.1L412.1,247.6L412.6,247.1L413.6,247.1L414.1,246.6L414.6,246.1L415.1,245.6L415.1,244.6L415.1,243.6L415.1,242.6L415.6,242.1L416.1,242.6L416.6,243.1L417.1,242.6L417.1,241.6L416.6,241.1L415.6,241.1L415.1,240.6L415.1,239.6L415.1,238.6L414.6,238.1L414.1,237.6L414.1,236.6L414.6,236.1L415.1,235.6L415.1,234.6L414.6,234.1L414.1,233.6L414.6,233.1L415.1,232.6L414.6,232.1L413.6,232.1L413.1,232.6L412.6,233.1L411.6,233.1L411.1,233.6L411.1,234.6L410.6,235.1L409.6,235.1L409.1,234.6L408.6,234.1L407.6,234.1L406.6,234.1L406.1,233.6L405.6,233.1L405.1,233.6L405.1,234.6L404.6,235.1L404.1,235.6L403.6,236.1L402.6,236.1L402.1,236.6L402.1,237.6L401.6,238.1L401.1,238.6L401.1,239.6L401.1,240.6L401.1,241.6L401.1,242.6L400.6,243.1L400.1,242.6L399.6,242.1L399.1,241.6L399.1,240.6L398.6,240.1L398.1,239.6L397.6,239.1L396.6,239.1L396.1,238.6L395.6,238.1L395.1,237.6L394.6,237.1L393.6,237.1L393.1,236.6L393.6,236.1L394.1,235.6L394.1,234.6L393.6,234.1L392.6,234.1L392.1,234.6L391.6,235.1L390.6,235.1L390.1,234.6L389.6,234.1L388.6,234.1L387.6,234.1L386.6,234.1L386.1,233.6L386.6,233.1L387.1,232.6L387.6,232.1L388.1,231.6L388.1,230.6L387.6,230.1L387.1,229.6L387.1,228.6L386.6,228.1L385.6,228.1L384.6,228.1L383.6,228.1L383.1,228.6L382.6,229.1L382.1,229.6L382.1,230.6L382.1,231.6L381.6,232.1L381.1,231.6L380.6,231.1L379.6,231.1L379.1,230.6L378.6,230.1L377.6,230.1L376.6,230.1L376.1,229.6L376.1,228.6L375.6,228.1L375.1,227.6L374.6,227.1L374.1,227.6L373.6,228.1L373.1,228.6L372.6,229.1L371.6,229.1L370.6,229.1L369.6,229.1L369.1,228.6L368.6,228.1L368.1,228.6L367.6,229.1L366.6,229.1L366.1,228.6L365.6,228.1L365.1,228.6L364.6,229.1L363.6,229.1L362.6,229.1L361.6,229.1L360.6,229.1L359.6,229.1L359.1,229.6L358.6,230.1L357.6,230.1L356.6,230.1L355.6,230.1L354.6,230.1L353.6,230.1L353.1,229.6L353.6,229.1L354.6,229.1L355.6,229.1L356.1,228.6L356.6,228.1L357.6,228.1L358.1,227.6L358.6,227.1L359.1,226.6L359.6,226.1L360.1,225.6L360.6,225.1L361.1,224.6L361.1,223.6L361.6,223.1L362.1,222.6L362.6,222.1L363.1,221.6L363.1,220.6L363.1,219.6L363.6,219.1L364.6,219.1L365.1,218.6L364.6,218.1L364.1,217.6L364.1,216.6L364.1,215.6L364.1,214.6L364.6,214.1L365.6,214.1L366.1,213.6L366.6,213.1L367.1,212.6L366.6,212.1L365.6,212.1L364.6,212.1L364.1,211.6L364.1,210.6L364.1,209.6L364.1,208.6L364.1,207.6L363.6,207.1L362.6,207.1L362.1,206.6L362.6,206.1L363.6,206.1L364.1,205.6L364.6,205.1L365.1,204.6L365.1,203.6L365.1,202.6L365.1,201.6L364.6,201.1L363.6,201.1L363.1,200.6L362.6,200.1L362.1,200.6L361.6,201.1L361.1,201.6L360.6,202.1L359.6,202.1L359.1,201.6L359.1,200.6L358.6,200.1L357.6,200.1L357.1,199.6L357.1,198.6L356.6,198.1L355.6,198.1L354.6,198.1L354.1,197.6L353.6,197.1L352.6,197.1L351.6,197.1L350.6,197.1L349.6,197.1L348.6,197.1L348.1,196.6L348.6,196.1L349.6,196.1L350.1,195.6L350.1,194.6L350.6,194.1L351.1,193.6L351.1,192.6L351.1,191.6L351.1,190.6L351.1,189.6L351.6,189.1L352.1,188.6L351.6,188.1L350.6,188.1L349.6,188.1L349.1,187.6L348.6,187.1L347.6,187.1L346.6,187.1L346.1,186.6L346.6,186.1L347.1,185.6L347.1,184.6L346.6,184.1L345.6,184.1L344.6,184.1ZM339.6,210.1L339.1,210.6L339.6,211.1L340.1,210.6ZM345.6,210.1L345.1,210.6L345.6,211.1L346.1,210.6ZM328.6,212.1L328.1,212.6L328.6,213.1L329.1,212.6ZM342.6,212.1L342.1,212.6L342.6,213.1L343.1,212.6ZM340.6,230.1L340.1,230.6L340.6,231.1L341.1,230.6ZM349.6,230.1L349.1,230.6L349.6,231.1L350.1,230.6ZM366.6,240.1L366.1,240.6L366.6,241.1L367.1,240.6ZM266.6,265.1L266.1,265.6L266.6,266.1L267.1,265.6ZM423.6,265.1L423.1,265.6L423.6,266.1L424.1,265.6ZM348.6,266.1L348.1,266.6L348.6,267.1L349.1,266.6ZM334.6,269.1L334.1,269.6L334.6,270.1L335.1,269.6ZM168.6,270.1L168.1,270.6L168.6,271.1L169.1,270.6ZM177.6,270.1L177.1,270.6L177.6,271.1L178.1,270.6ZM512.6,270.1L512.1,270.6L512.6,271.1L513.1,270.6ZM184.6,276.1L184.1,276.6L184.6,277.1L185.1,276.6ZM505.6,276.1L505.1,276.6L505.6,277.1L506.1,276.6ZM202.6,278.1L202.1,278.6L202.6,279.1L203.1,278.6ZM487.6,278.1L487.1,278.6L487.6,279.1L488.1,278.6ZM144.6,299.1L144.1,299.6L144.6,300.1L145.1,299.6ZM545.6,299.1L545.1,299.6L545.6,300.1L546.1,299.6ZM127.6,323.1L127.1,323.6L127.6,324.1L128.1,323.6ZM562.6,323.1L562.1,323.6L562.6,324.1L563.1,323.6ZM250.6,328.1L250.1,328.6L250.1,329.6L250.1,330.6L250.1,331.6L250.1,332.6L250.1,333.6L250.1,334.6L250.6,335.1L251.1,334.6L251.1,333.6L251.1,332.6L251.1,331.6L251.1,330.6L251.1,329.6L251.1,328.6ZM439.6,328.1L439.1,328.6L439.1,329.6L439.1,330.6L439.1,331.6L439.1,332.6L439.1,333.6L439.1,334.6L439.6,335.1L440.1,334.6L440.1,333.6L440.1,332.6L440.1,331.6L440.1,330.6L440.1,329.6L440.1,328.6ZM71.6,338.1L71.1,338.6L71.6,339.1L72.1,338.6ZM618.6,338.1L618.1,338.6L618.6,339.1L619.1,338.6ZM87.6,341.1L87.1,341.6L87.6,342.1L88.1,341.6ZM602.6,341.1L602.1,341.6L602.6,342.1L603.1,341.6ZM87.6,348.1L87.1,348.6L87.6,349.1L88.1,348.6ZM602.6,348.1L602.1,348.6L602.6,349.1L603.1,348.6ZM71.6,351.1L71.1,351.6L71.6,352.1L72.1,351.6ZM618.6,351.1L618.1,351.6L618.6,352.1L619.1,351.6ZM250.6,355.1L250.1,355.6L250.1,356.6L250.1,357.6L250.1,358.6L250.1,359.6L250.1,360.6L250.1,361.6L250.6,362.1L251.1,361.6L251.1,360.6L251.1,359.6L251.1,358.6L251.1,357.6L251.1,356.6L251.1,355.6ZM439.6,355.1L439.1,355.6L439.1,356.6L439.1,357.6L439.1,358.6L439.1,359.6L439.1,360.6L439.1,361.6L439.6,362.1L440.1,361.6L440.1,360.6L440.1,359.6L440.1,358.6L440.1,357.6L440.1,356.6L440.1,355.6ZM127.6,366.1L127.1,366.6L127.6,367.1L128.1,366.6ZM562.6,366.1L562.1,366.6L562.6,367.1L563.1,366.6ZM144.6,390.1L144.1,390.6L144.6,391.1L145.1,390.6ZM545.6,390.1L545.1,390.6L545.6,391.1L546.1,390.6ZM202.6,411.1L202.1,411.6L202.6,412.1L203.1,411.6ZM487.6,411.1L487.1,411.6L487.6,412.1L488.1,411.6ZM184.6,413.1L184.1,413.6L184.6,414.1L185.1,413.6ZM505.6,413.1L505.1,413.6L505.6,414.1L506.1,413.6ZM177.6,419.1L177.1,419.6L177.6,420.1L178.1,419.6ZM512.6,419.1L512.1,419.6L512.6,420.1L513.1,419.6ZM266.6,424.1L266.1,424.6L266.6,425.1L267.1,424.6ZM423.6,424.1L423.1,424.6L423.6,425.1L424.1,424.6ZM340.6,459.1L340.1,459.6L340.6,460.1L341.1,459.6ZM349.6,459.1L349.1,459.6L349.6,460.1L350.1,459.6Z"/>
</svg>
